PathFileType	4	(x/y/z)	S02_M20_T11
DataRate	CameraRate	NumFrames	NumMarkers	Units	OrigDataRate	OrigDataStartFrame	OrigNumFrames
240	240	7	51	mm	240	117	466
Frame#	Time	Sternum			R.Acromium			L.Acromium			Top.Head			R.ASIS			L.ASIS			R.PSIS			L.PSIS			R.Great.Tro			L.Great.Tro			R.Iliac.Crest			L.Iliac.Crest			V.Sacral			R.Thigh.Upper.Post			R.Thigh.Lower.Ant			R.Thigh.Lower.Post			R.Thigh.Upper.Ant			R.Knee.Lat			R.Knee.Med			R.Shank.Upper.Post			R.Shank.Lower.Ant			R.Shank.Lower.Post			R.Shank.Upper.Ant			R.Ankle.Lat			R.Ankle.Med			R.Heel.Upper			R.Heel.Med			R.Heel.Lat			R.Toe.Lat			R.Toe.Med			R.Toe.Tip			L.Thigh.Upper.Post			L.Thigh.Lower.Ant			L.Thigh.Lower.Post			L.Thigh.Upper.Ant			L.Knee.Lat			L.Knee.Med			L.Shank.Upper.Post			L.Shank.Lower.Ant			L.Shank.Lower.Post			L.Shank.Upper.Ant			L.Ankle.Lat			L.Ankle.Med			L.Heel.Upper			L.Heel.Med			L.Heel.Lat			L.Toe.Lat			L.Toe.Med			L.Toe.Tip			Cervical.Spine			Back			
		X1	Y1	Z1	X2	Y2	Z2	X3	Y3	Z3	X4	Y4	Z4	X5	Y5	Z5	X6	Y6	Z6	X7	Y7	Z7	X8	Y8	Z8	X9	Y9	Z9	X10	Y10	Z10	X11	Y11	Z11	X12	Y12	Z12	X13	Y13	Z13	X14	Y14	Z14	X15	Y15	Z15	X16	Y16	Z16	X17	Y17	Z17	X18	Y18	Z18	X19	Y19	Z19	X20	Y20	Z20	X21	Y21	Z21	X22	Y22	Z22	X23	Y23	Z23	X24	Y24	Z24	X25	Y25	Z25	X26	Y26	Z26	X27	Y27	Z27	X28	Y28	Z28	X29	Y29	Z29	X30	Y30	Z30	X31	Y31	Z31	X32	Y32	Z32	X33	Y33	Z33	X34	Y34	Z34	X35	Y35	Z35	X36	Y36	Z36	X37	Y37	Z37	X38	Y38	Z38	X39	Y39	Z39	X40	Y40	Z40	X41	Y41	Z41	X42	Y42	Z42	X43	Y43	Z43	X44	Y44	Z44	X45	Y45	Z45	X46	Y46	Z46	X47	Y47	Z47	X48	Y48	Z48	X49	Y49	Z49	X50	Y50	Z50	X51	Y51	Z51	

117	0.48333	-928.15	1103.6	267.77	-1052.7	1342.4	397.68	-1021.3	1341.3	106.48	-983.89	1619.6	256.85	-956.05	929.63	368.28	-954.37	909.5	154.29	-1164.3	969.94	320.24	-1179.2	977.46	248.03	-1010.5	816.65	467.59	-1097.2	838.36	77.09	-1054.2	981.31	427.11	-1079.9	962.96	94.767	-1200.8	927.51	279.55	-927.3	629.14	461.88	-850.43	575.19	421.13	-910.98	541.54	446.27	-872.47	661.53	434.37	-866.29	476.9	428.94	-869.7	458.08	284.39	-891.46	260.65	415.13	-796.43	204.07	409.62	-863.32	192.78	409.67	-819.55	269.8	422.57	-818.62	104.38	402.64	-802.39	121.52	322.21	-863.28	70.821	340.24	-834.59	47.283	314.25	-854.7	40.628	376	-708.18	81.484	441.76	-663.06	94.004	342.23	-636.01	132.83	403.46	-1173.9	627.69	112.32	-1118.9	531.75	119.24	-1196.2	542.49	136.64	-1103.5	623.13	95.663	-1157.4	457.19	133.57	-1160.4	459.11	272.45	-1268.3	309.06	139.67	-1220.6	209.35	160.9	-1287.6	237.2	159.89	-1212.5	282.57	141.35	-1279.9	112.65	179.74	-1273.7	112.55	260.7	-1347.2	87.587	215.37	-1341.1	63.925	249.7	-1343.3	58.924	188.07	-1180.6	33.704	163	-1160.9	44.618	272.09	-1098	53.847	226.41	-1109.6	1397.8	243.38	-1194.4	1149.8	246.29
118	0.4875	-923.21	1102.1	267.88	-1047.8	1341.1	397.84	-1015.9	1339.9	106.72	-978.85	1618.3	257.33	-950.76	928.34	368.32	-949.57	908.31	154.14	-1159.2	968.71	320.74	-1174.3	976.32	248.58	-1005	815.08	467.46	-1092.9	837.66	77.142	-1048.9	979.91	427.36	-1075.4	961.73	94.948	-1195.7	926.31	280.11	-921.73	627.84	461.22	-845	573.98	420.11	-905.36	540.24	445.37	-867.07	660.29	433.44	-860.32	475.97	428.25	-864.47	456.9	283.49	-880.98	259.41	414.9	-784.78	204.93	408.97	-851.36	192.18	409.39	-809.26	270.21	421.97	-804.62	104.64	402.38	-789.12	121.96	321.9	-848.95	69.977	340.24	-819.84	46.98	314.14	-839.48	40.017	376.03	-693.47	84.06	440.83	-649.31	97.413	341.19	-622.63	136.99	402.11	-1170.7	627.59	112.37	-1116.4	531.28	119.26	-1193.5	542.53	136.7	-1100.3	622.56	95.66	-1155.3	456.96	133.52	-1158.4	458.91	272.38	-1267.3	309.29	139.86	-1220	209.39	160.9	-1287.3	237.58	160.5	-1211.5	282.61	141.32	-1279.8	112.94	179.76	-1273.5	112.94	260.76	-1347	87.95	215.38	-1341	64.331	249.74	-1343.2	59.333	188.09	-1180.6	33.69	163	-1160.8	44.62	272.09	-1098	53.748	226.41	-1104.5	1396.6	243.5	-1189.4	1148.6	246.47
119	0.49167	-918.24	1100.5	267.99	-1042.8	1339.7	398.02	-1010.5	1338.5	106.97	-973.8	1617	257.83	-945.45	927.02	368.36	-944.76	907.1	153.98	-1154	967.46	321.25	-1169.4	975.16	249.16	-999.62	813.46	467.32	-1088.6	836.93	77.201	-1043.7	978.49	427.64	-1070.9	960.5	95.143	-1190.5	925.08	280.7	-916.18	626.51	460.56	-839.58	572.74	419.13	-899.76	538.91	444.47	-861.68	659.02	432.55	-854.36	475.04	427.58	-859.24	455.7	282.62	-870.62	258.26	414.66	-773.32	205.84	408.29	-839.56	191.68	409.08	-799.12	270.65	421.36	-790.87	105	402.06	-776.12	122.5	321.53	-834.87	69.285	340.2	-805.38	46.824	313.99	-824.53	39.559	376	-679.05	86.687	439.82	-635.88	100.85	340.05	-609.55	141.14	400.68	-1167.5	627.45	112.42	-1113.8	530.79	119.27	-1190.8	542.54	136.77	-1097.1	621.96	95.647	-1153.1	456.7	133.48	-1156.3	458.67	272.31	-1266.3	309.51	140.08	-1219.3	209.43	160.89	-1286.9	237.97	161.09	-1210.4	282.64	141.3	-1279.6	113.24	179.77	-1273.2	113.34	260.82	-1346.9	88.325	215.39	-1340.9	64.751	249.77	-1343.1	59.757	188.11	-1180.6	33.676	163	-1160.8	44.621	272.08	-1097.9	53.65	226.4	-1099.4	1395.3	243.63	-1184.4	1147.4	246.67
120	0.49583	-913.26	1098.9	268.1	-1037.8	1338.4	398.22	-1005	1337	107.23	-968.72	1615.6	258.34	-940.11	925.67	368.39	-939.95	905.88	153.81	-1148.8	966.2	321.79	-1164.5	973.98	249.75	-994.2	811.8	467.19	-1084.2	836.19	77.266	-1038.3	977.04	427.93	-1066.4	959.27	95.35	-1185.4	923.83	281.32	-910.66	625.16	459.91	-834.15	571.48	418.19	-894.18	537.56	443.6	-856.29	657.73	431.71	-848.41	474.11	426.93	-854.01	454.49	281.79	-860.37	257.19	414.41	-762.06	206.78	407.58	-827.95	191.26	408.74	-789.11	271.11	420.74	-777.37	105.44	401.67	-763.39	123.13	321.11	-821.05	68.731	340.1	-791.23	46.799	313.78	-809.86	39.24	375.89	-664.93	89.342	438.74	-622.74	104.31	338.8	-596.77	145.24	399.16	-1164.2	627.29	112.49	-1111.1	530.28	119.25	-1188	542.51	136.84	-1093.9	621.35	95.623	-1150.9	456.42	133.42	-1154	458.38	272.25	-1265.3	309.71	140.32	-1218.6	209.45	160.9	-1286.4	238.37	161.63	-1209.2	282.66	141.28	-1279.5	113.55	179.78	-1272.9	113.74	260.87	-1346.7	88.717	215.39	-1340.7	65.19	249.79	-1342.9	60.199	188.12	-1180.6	33.662	162.99	-1160.7	44.623	272.08	-1097.9	53.55	226.4	-1094.2	1394.1	243.8	-1179.3	1146.1	246.9
121	0.5	-908.25	1097.3	268.21	-1032.7	1337	398.44	-999.54	1335.5	107.52	-963.62	1614.3	258.87	-934.75	924.29	368.41	-935.13	904.64	153.64	-1143.6	964.92	322.35	-1159.6	972.8	250.37	-988.78	810.11	467.06	-1079.8	835.42	77.34	-1033	975.58	428.24	-1061.9	958.04	95.57	-1180.2	922.56	281.97	-905.14	623.8	459.27	-828.71	570.2	417.28	-888.59	536.21	442.74	-850.89	656.43	430.91	-842.48	473.18	426.3	-848.76	453.28	281	-850.26	256.19	414.13	-751	207.73	406.84	-816.54	190.91	408.37	-779.25	271.57	420.11	-764.13	105.96	401.22	-750.95	123.84	320.62	-807.52	68.301	339.95	-777.41	46.891	313.52	-795.49	39.042	375.7	-651.14	91.998	437.57	-609.92	107.76	337.44	-584.3	149.28	397.58	-1160.9	627.09	112.56	-1108.4	529.76	119.22	-1185.2	542.45	136.93	-1090.7	620.72	95.591	-1148.6	456.11	133.37	-1151.6	458.05	272.17	-1264.3	309.9	140.58	-1217.8	209.47	160.9	-1285.8	238.78	162.13	-1208	282.66	141.25	-1279.3	113.87	179.78	-1272.6	114.16	260.91	-1346.5	89.129	215.37	-1340.6	65.648	249.8	-1342.8	60.661	188.11	-1180.6	33.648	162.99	-1160.7	44.625	272.08	-1097.8	53.449	226.4	-1089.1	1392.8	243.99	-1174.2	1144.8	247.16
122	0.50417	-903.21	1095.7	268.33	-1027.6	1335.6	398.69	-994.05	1334	107.82	-958.49	1612.9	259.41	-929.37	922.89	368.42	-930.32	903.4	153.47	-1138.4	963.62	322.93	-1154.7	971.61	251.01	-983.34	808.4	466.94	-1075.4	834.63	77.422	-1027.5	974.11	428.56	-1057.4	956.8	95.802	-1174.9	921.28	282.65	-899.62	622.43	458.65	-823.25	568.93	416.42	-883	534.86	441.91	-845.47	655.13	430.15	-836.53	472.26	425.68	-843.5	452.07	280.25	-840.28	255.27	413.83	-740.17	208.68	406.07	-805.33	190.64	407.97	-769.55	272.04	419.46	-751.19	106.53	400.7	-738.81	124.6	320.07	-794.29	67.98	339.72	-763.92	47.083	313.19	-781.45	38.948	375.43	-637.67	94.628	436.34	-597.4	111.18	335.98	-572.15	153.22	395.93	-1157.5	626.86	112.64	-1105.6	529.21	119.18	-1182.3	542.36	137.02	-1087.4	620.08	95.55	-1146.2	455.78	133.32	-1149.1	457.68	272.1	-1263.2	310.07	140.84	-1217	209.47	160.9	-1285.1	239.21	162.57	-1206.7	282.65	141.22	-1279.1	114.21	179.78	-1272.2	114.57	260.94	-1346.3	89.567	215.35	-1340.5	66.131	249.81	-1342.6	61.145	188.1	-1180.5	33.634	162.99	-1160.6	44.627	272.08	-1097.8	53.345	226.4	-1083.9	1391.5	244.2	-1169	1143.5	247.45
123	0.50833	-898.15	1094.1	268.44	-1022.5	1334.1	398.96	-988.54	1332.5	108.14	-953.35	1611.6	259.97	-923.95	921.47	368.41	-925.51	902.14	153.3	-1133.1	962.32	323.53	-1149.7	970.4	251.67	-977.89	806.68	466.84	-1071	833.83	77.515	-1022.1	972.64	428.89	-1052.9	955.57	96.046	-1169.6	919.99	283.35	-894.08	621.07	458.04	-817.76	567.67	415.6	-877.38	533.51	441.11	-840.04	653.84	429.43	-830.58	471.35	425.08	-838.21	450.86	279.55	-830.46	254.41	413.5	-729.55	209.63	405.28	-794.34	190.41	407.54	-760.01	272.5	418.8	-738.55	107.13	400.11	-726.97	125.4	319.46	-781.37	67.75	339.42	-750.8	47.359	312.79	-767.74	38.939	375.07	-624.56	97.207	435.03	-585.21	114.56	334.41	-560.33	157.04	394.23	-1154.1	626.6	112.74	-1102.8	528.65	119.12	-1179.4	542.23	137.12	-1084	619.42	95.502	-1143.7	455.42	133.26	-1146.5	457.26	272.02	-1262	310.25	141.1	-1216.2	209.48	160.89	-1284.3	239.65	162.95	-1205.3	282.64	141.18	-1278.9	114.56	179.76	-1271.9	114.99	260.96	-1346.1	90.034	215.32	-1340.3	66.641	249.8	-1342.5	61.654	188.08	-1180.5	33.621	162.99	-1160.6	44.629	272.08	-1097.7	53.238	226.41	-1078.7	1390.2	244.44	-1163.8	1142.2	247.76
